<svg id="language-24px" xmlns="http://www.w3.org/2000/svg" width="216.674" height="216.673" viewBox="0 0 216.674 216.673">
  <path id="Path_207" data-name="Path 207" d="M0,0H216.673V216.673H0Z" fill="none"/>
  <path id="Path_208" data-name="Path 208" d="M92.19,2a90.281,90.281,0,1,0,90.371,90.281A90.236,90.236,0,0,0,92.19,2Zm62.564,54.168H128.122a141.28,141.28,0,0,0-12.459-32.14A72.492,72.492,0,0,1,154.755,56.168ZM92.281,20.417a127.176,127.176,0,0,1,17.244,35.751H75.037A127.176,127.176,0,0,1,92.281,20.417ZM22.4,110.337a74.408,74.408,0,0,1-2.347-18.056A74.408,74.408,0,0,1,22.4,74.224H52.918a149.1,149.1,0,0,0-1.264,18.056,149.1,149.1,0,0,0,1.264,18.056Zm7.4,18.056H56.439A141.28,141.28,0,0,0,68.9,160.533a72.105,72.105,0,0,1-39.091-32.14ZM56.439,56.168H29.806A72.105,72.105,0,0,1,68.9,24.028a141.282,141.282,0,0,0-12.459,32.14ZM92.281,164.144a127.176,127.176,0,0,1-17.244-35.751h34.487A127.176,127.176,0,0,1,92.281,164.144Zm21.126-53.807H71.155A132.827,132.827,0,0,1,69.71,92.281a131.673,131.673,0,0,1,1.444-18.056h42.251a131.675,131.675,0,0,1,1.444,18.056A132.829,132.829,0,0,1,113.406,110.337Zm2.257,50.2a141.281,141.281,0,0,0,12.459-32.14h26.633A72.492,72.492,0,0,1,115.663,160.533Zm15.98-50.2a149.1,149.1,0,0,0,1.264-18.056,149.1,149.1,0,0,0-1.264-18.056h30.515A74.408,74.408,0,0,1,164.5,92.281a74.408,74.408,0,0,1-2.347,18.056Z" transform="translate(16.056 16.056)" fill="#f39200"/>
</svg>
