<svg id="grade-24px_1_" data-name="grade-24px(1)" xmlns="http://www.w3.org/2000/svg" width="216.674" height="216.673" viewBox="0 0 216.674 216.673">
  <path id="Path_209" data-name="Path 209" d="M0,0H216.673V216.673H0Z" fill="none"/>
  <path id="Path_210" data-name="Path 210" d="M92.281,48.314l8.757,20.674,4.243,10.021,10.834.9,22.3,1.9L121.441,96.524l-8.216,7.132,2.438,10.653,5.056,21.758-19.139-11.556-9.3-5.778-9.3,5.6L63.842,135.886,68.9,114.128l2.438-10.653L63.12,96.343,46.147,81.627l22.3-1.9,10.834-.9,4.243-10.021,8.757-20.494M92.281,2,66.912,61.856,2,67.363l49.293,42.7L36.487,173.533l55.793-33.675,55.793,33.675-14.806-63.467,49.293-42.7-64.912-5.507Z" transform="translate(16.056 16.056)" fill="#f39200"/>
</svg>
