<svg xmlns="http://www.w3.org/2000/svg" width="438.023" height="92.028" viewBox="0 0 438.023 92.028">
  <g id="Group_56" data-name="Group 56" transform="translate(-619.933 -458.02)">
    <g id="Group_51" data-name="Group 51" transform="translate(619.933 458.02)">
      <ellipse id="Ellipse_1" data-name="Ellipse 1" cx="5.827" cy="5.067" rx="5.827" ry="5.067" transform="translate(49.443 80.337)" fill="#ffbd4a"/>
      <path id="Path_1" data-name="Path 1" d="M-21315.527-6436.394c-4.355-1.377-9.42-21.277-9.225-32.832s2.633-38.986,6.9-39.081,9.125,26.742,9.176,39.081S-21311.172-6435.015-21315.527-6436.394Z" transform="translate(21370.793 6508.307)" fill="#ffbd4a"/>
      <g id="Group_13" data-name="Group 13" transform="translate(0 35.654)">
        <path id="Path_5" data-name="Path 5" d="M5.8.038C2.98.889-.123,12.364,0,19.5s1.538,25.243,4.3,25.3,5.914-16.524,5.945-24.147S8.625-.814,5.8.038Z" transform="translate(51.224 37.146) rotate(146)" fill="#ffbd4a"/>
        <path id="Path_6" data-name="Path 6" d="M6.844.038C4.022.889-.124,16.925,0,24.065s2.58,20.683,5.346,20.742,5.914-16.524,5.946-24.148S9.667-.814,6.844.038Z" transform="translate(44.451 40.955) rotate(120)" fill="#ffbd4a"/>
        <path id="Path_7" data-name="Path 7" d="M3.779.022C2.221.527-.068,10.028,0,14.257S1.426,26.511,2.953,26.546s3.266-9.79,3.283-14.306S5.338-.482,3.779.022Z" transform="matrix(0.105, 0.995, -0.995, 0.105, 38.043, 47.397)" fill="#ffbd4a"/>
      </g>
      <g id="Group_14" data-name="Group 14" transform="translate(59.352 35.654)">
        <path id="Path_5-2" data-name="Path 5" d="M5.8,44.769C2.98,43.917-.123,32.442,0,25.3S1.542.059,4.308,0s5.914,16.524,5.945,24.147S8.625,45.62,5.8,44.769Z" transform="translate(25.055 0) rotate(34)" fill="#ffbd4a"/>
        <path id="Path_6-2" data-name="Path 6" d="M6.844,44.769C4.021,43.918-.124,27.882,0,20.742S2.583.059,5.349,0s5.914,16.524,5.945,24.148S9.667,45.621,6.844,44.769Z" transform="translate(45.577 18.552) rotate(60)" fill="#ffbd4a"/>
        <path id="Path_7-2" data-name="Path 7" d="M3.779,26.524C2.221,26.02-.068,16.519,0,12.289S1.426.035,2.953,0,6.219,9.79,6.236,14.307,5.338,27.029,3.779,26.524Z" transform="matrix(-0.105, 0.995, -0.995, -0.105, 39.582, 50.172)" fill="#ffbd4a"/>
      </g>
    </g>
    <path id="Path_174" data-name="Path 174" d="M8.064,0V-51.975H22.806a20.822,20.822,0,0,1,8.883,1.764,13.481,13.481,0,0,1,5.875,5.1,15,15,0,0,1,2.095,8.127,15.777,15.777,0,0,1-2.095,8.237,14.136,14.136,0,0,1-5.875,5.434,19.365,19.365,0,0,1-8.883,1.921H14.458V0Zm6.394-26.649h6.615a15.188,15.188,0,0,0,6.221-1.2,9.706,9.706,0,0,0,4.221-3.465,9.638,9.638,0,0,0,1.528-5.513,9.47,9.47,0,0,0-1.528-5.5,9.416,9.416,0,0,0-4.221-3.355,15.924,15.924,0,0,0-6.221-1.134H14.458ZM51.628,0V-51.975H66.37a20.668,20.668,0,0,1,8.946,1.8,13.446,13.446,0,0,1,5.843,5.15,15.066,15.066,0,0,1,2.063,8.048A15.925,15.925,0,0,1,81.617-29.7a13.574,13.574,0,0,1-4.583,5.2,17.085,17.085,0,0,1-7.1,2.646L87.129,0H79l-16.1-21.2H58.023V0Zm6.395-26.649h6.615a15.236,15.236,0,0,0,6.395-1.229,9.372,9.372,0,0,0,4.126-3.512,9.928,9.928,0,0,0,1.449-5.434,9.045,9.045,0,0,0-3.166-7.339q-3.166-2.646-8.8-2.646H58.023ZM119.542,1.008a25.2,25.2,0,0,1-10.206-2.079,26.059,26.059,0,0,1-8.348-5.78,27.172,27.172,0,0,1-5.623-8.6,27.144,27.144,0,0,1-2.032-10.505,27.109,27.109,0,0,1,2.032-10.521,27.22,27.22,0,0,1,5.623-8.584,26.059,26.059,0,0,1,8.348-5.78,25.2,25.2,0,0,1,10.206-2.079,25.2,25.2,0,0,1,10.206,2.079,26.058,26.058,0,0,1,8.348,5.78,27.22,27.22,0,0,1,5.623,8.584,27.109,27.109,0,0,1,2.032,10.521,27.144,27.144,0,0,1-2.032,10.505,27.173,27.173,0,0,1-5.623,8.6,26.058,26.058,0,0,1-8.348,5.78A25.2,25.2,0,0,1,119.542,1.008Zm0-6.174a18.376,18.376,0,0,0,7.607-1.575,18.89,18.89,0,0,0,6.143-4.394,20.294,20.294,0,0,0,4.1-6.615,22.6,22.6,0,0,0,1.465-8.206,22.6,22.6,0,0,0-1.465-8.206,20.294,20.294,0,0,0-4.1-6.615,18.89,18.89,0,0,0-6.143-4.394,18.376,18.376,0,0,0-7.607-1.575,18.376,18.376,0,0,0-7.607,1.575,18.891,18.891,0,0,0-6.143,4.394,20.293,20.293,0,0,0-4.1,6.615,22.6,22.6,0,0,0-1.465,8.206A22.6,22.6,0,0,0,101.7-17.75a20.293,20.293,0,0,0,4.1,6.615,18.891,18.891,0,0,0,6.143,4.394A18.376,18.376,0,0,0,119.542-5.166Zm52.1,6.174a20.7,20.7,0,0,1-6.961-1.087,21.262,21.262,0,0,1-5.261-2.662,23.834,23.834,0,0,1-3.622-3.1q-1.417-1.528-2.079-2.41l3.5-4.977q.724.882,1.953,2.268a21.952,21.952,0,0,0,3.024,2.772,17.059,17.059,0,0,0,4.189,2.331,14.659,14.659,0,0,0,5.418.945A12.964,12.964,0,0,0,177-5.922a8.687,8.687,0,0,0,3.733-2.992,8.3,8.3,0,0,0,1.4-4.914,8.351,8.351,0,0,0-1.008-4.237,9.41,9.41,0,0,0-2.8-3.008,24.454,24.454,0,0,0-4.189-2.315q-2.394-1.055-5.166-2.126Q167.013-26.3,165-27.358a18.114,18.114,0,0,1-3.717-2.583,11.911,11.911,0,0,1-2.74-3.638,11.145,11.145,0,0,1-1.04-4.977,13.816,13.816,0,0,1,1.1-5.481,14.322,14.322,0,0,1,3.119-4.583,14.682,14.682,0,0,1,4.8-3.15,16.089,16.089,0,0,1,6.19-1.15,17.143,17.143,0,0,1,5.717.945,19.972,19.972,0,0,1,4.8,2.41,15.376,15.376,0,0,1,3.37,3.071L183.613-41.8a13.724,13.724,0,0,0-2.646-2.567,14.026,14.026,0,0,0-3.686-1.969,12.99,12.99,0,0,0-4.473-.756,9.519,9.519,0,0,0-4.961,1.213,8.377,8.377,0,0,0-3.1,3.134,8.282,8.282,0,0,0-1.071,4.095,6.379,6.379,0,0,0,.8,3.308,7.372,7.372,0,0,0,2.158,2.3,16.886,16.886,0,0,0,3.056,1.669q1.7.724,3.5,1.386,3.213,1.26,6.079,2.6a23.817,23.817,0,0,1,5.04,3.118A12.941,12.941,0,0,1,187.724-20a13.336,13.336,0,0,1,1.244,6.017,14.213,14.213,0,0,1-2.252,8.111,14.342,14.342,0,0,1-6.158,5.119A21.443,21.443,0,0,1,171.643,1.008ZM201.537,0V-51.975h14.742a20.822,20.822,0,0,1,8.883,1.764,13.481,13.481,0,0,1,5.875,5.1,15,15,0,0,1,2.095,8.127,15.777,15.777,0,0,1-2.095,8.237,14.136,14.136,0,0,1-5.875,5.434,19.365,19.365,0,0,1-8.883,1.921h-8.348V0Zm6.395-26.649h6.615a15.188,15.188,0,0,0,6.221-1.2,9.706,9.706,0,0,0,4.221-3.465,9.637,9.637,0,0,0,1.528-5.513,9.47,9.47,0,0,0-1.528-5.5,9.416,9.416,0,0,0-4.221-3.355,15.924,15.924,0,0,0-6.221-1.134h-6.615ZM245.1,0V-51.975h27v5.639H251.5v17.482h19.845v5.607H251.5V-5.639h20.6V0Zm40.54,0V-51.975h14.742a20.668,20.668,0,0,1,8.946,1.8,13.446,13.446,0,0,1,5.843,5.15,15.066,15.066,0,0,1,2.063,8.048A15.925,15.925,0,0,1,315.63-29.7a13.574,13.574,0,0,1-4.583,5.2,17.085,17.085,0,0,1-7.1,2.646L321.143,0h-8.127l-16.1-21.2h-4.883V0Zm6.395-26.649h6.615a15.236,15.236,0,0,0,6.395-1.229,9.372,9.372,0,0,0,4.127-3.512,9.928,9.928,0,0,0,1.449-5.434,9.045,9.045,0,0,0-3.166-7.339q-3.166-2.646-8.8-2.646h-6.615Z" transform="translate(736.814 533.427)" fill="#fff"/>
  </g>
</svg>
