<svg xmlns="http://www.w3.org/2000/svg" width="1334.01" height="327.437" viewBox="0 0 1334.01 327.437">
  <g id="Group_74" data-name="Group 74" transform="translate(-258.423 -400)">
    <g id="Group_51" data-name="Group 51" transform="translate(258.423 400)">
      <ellipse id="Ellipse_1" data-name="Ellipse 1" cx="20.543" cy="17.863" rx="20.543" ry="17.863" transform="translate(174.304 283.217)" fill="#ffbd4a"/>
      <path id="Path_1" data-name="Path 1" d="M-21292.215-6254.785c-15.363-4.858-33.215-75.011-32.527-115.747s9.281-137.439,24.328-137.775,32.18,94.278,32.355,137.775S-21276.863-6249.927-21292.215-6254.785Z" transform="translate(21487.051 6508.309)" fill="#ffbd4a"/>
      <g id="Group_13" data-name="Group 13" transform="translate(0 125.692)">
        <path id="Path_5" data-name="Path 5" d="M20.456.132C10.5,3.134-.434,43.588.013,68.758s5.421,88.992,15.173,89.2S36.034,99.706,36.144,72.83,30.408-2.869,20.456.132Z" transform="translate(180.583 130.953) rotate(146)" fill="#ffbd4a"/>
        <path id="Path_6" data-name="Path 6" d="M24.129.132C14.177,3.134-.437,59.666.01,84.837s9.1,72.914,18.847,73.122,20.85-58.252,20.96-85.128S34.081-2.869,24.129.132Z" transform="translate(156.706 144.381) rotate(120)" fill="#ffbd4a"/>
        <path id="Path_7" data-name="Path 7" d="M13.323.078C7.828,1.857-.24,35.351.005,50.262s5.022,43.2,10.406,43.322S21.924,59.072,21.984,43.149,18.818-1.7,13.323.078Z" transform="matrix(0.105, 0.995, -0.995, 0.105, 134.115, 167.092)" fill="#ffbd4a"/>
      </g>
      <g id="Group_14" data-name="Group 14" transform="translate(209.237 125.691)">
        <path id="Path_5-2" data-name="Path 5" d="M20.456,157.826C10.5,154.825-.434,114.37.013,89.2S5.435.208,15.186,0,36.034,58.252,36.144,85.128,30.408,160.828,20.456,157.826Z" transform="translate(88.329 0) rotate(34)" fill="#ffbd4a"/>
        <path id="Path_6-2" data-name="Path 6" d="M24.129,157.828C14.177,154.826-.437,98.294.01,73.123S9.106.208,18.857,0s20.85,58.253,20.96,85.129S34.081,160.83,24.129,157.828Z" transform="translate(160.674 65.401) rotate(60)" fill="#ffbd4a"/>
        <path id="Path_7-2" data-name="Path 7" d="M13.323,93.507C7.828,91.728-.24,58.234.005,43.322S5.028.123,10.412,0,21.924,34.513,21.984,50.436,18.818,95.285,13.323,93.507Z" transform="matrix(-0.105, 0.995, -0.995, -0.105, 139.54, 176.874)" fill="#ffbd4a"/>
      </g>
    </g>
    <path id="Path_176" data-name="Path 176" d="M32.347,1.52A28.84,28.84,0,0,1,21.66-.309a29.917,29.917,0,0,1-7.814-4.418,31.759,31.759,0,0,1-5.13-5.059q-1.924-2.47-2.684-3.705l4.132-5.32q.855,1.33,2.589,3.586a30.479,30.479,0,0,0,4.441,4.56A24.642,24.642,0,0,0,23.7-6.769,22.6,22.6,0,0,0,32.49-5.177a21.446,21.446,0,0,0,8.669-1.71,14.739,14.739,0,0,0,6.294-5.083,14.159,14.159,0,0,0,2.375-8.36,14.315,14.315,0,0,0-1.639-7.1A15.041,15.041,0,0,0,43.653-32.4a35.962,35.962,0,0,0-6.626-3.634Q33.3-37.62,29.212-39.14q-2.85-1.093-5.961-2.589a28.059,28.059,0,0,1-5.819-3.753,17.746,17.746,0,0,1-4.394-5.486,16.648,16.648,0,0,1-1.686-7.79,20.429,20.429,0,0,1,1.615-8.075,21.273,21.273,0,0,1,4.512-6.721,20.788,20.788,0,0,1,6.935-4.584,23.24,23.24,0,0,1,8.93-1.662,23.512,23.512,0,0,1,8.645,1.544A26.759,26.759,0,0,1,48.9-74.361a20.4,20.4,0,0,1,4.584,4.869L49.78-64.505a17.251,17.251,0,0,0-3.7-4.18,19.9,19.9,0,0,0-5.581-3.254,19.278,19.278,0,0,0-7.1-1.259,15.431,15.431,0,0,0-8.241,2.09A14.007,14.007,0,0,0,20-65.716a14.6,14.6,0,0,0-1.757,6.959,10.914,10.914,0,0,0,1.378,5.652,12.507,12.507,0,0,0,3.657,3.919,26.674,26.674,0,0,0,5.011,2.731q2.731,1.14,5.486,2.137,4.608,1.71,8.859,3.634a36.046,36.046,0,0,1,7.576,4.56,19.5,19.5,0,0,1,5.272,6.412,19.749,19.749,0,0,1,1.947,9.144A20.937,20.937,0,0,1,54.1-8.6a21.227,21.227,0,0,1-8.978,7.529A30.35,30.35,0,0,1,32.347,1.52Zm80.085,0a38,38,0,0,1-15.39-3.135,39.3,39.3,0,0,1-12.588-8.716A40.974,40.974,0,0,1,75.976-23.3,40.931,40.931,0,0,1,72.913-39.14a40.879,40.879,0,0,1,3.064-15.865,41.046,41.046,0,0,1,8.479-12.944,39.3,39.3,0,0,1,12.588-8.716,38,38,0,0,1,15.39-3.135,38,38,0,0,1,15.39,3.135,39.3,39.3,0,0,1,12.588,8.716,41.046,41.046,0,0,1,8.479,12.944,40.879,40.879,0,0,1,3.064,15.865A40.931,40.931,0,0,1,148.889-23.3a40.975,40.975,0,0,1-8.479,12.967,39.3,39.3,0,0,1-12.588,8.716A38,38,0,0,1,112.433,1.52Zm0-6.983a30.186,30.186,0,0,0,12.445-2.565A31.265,31.265,0,0,0,134.971-15.2a33.332,33.332,0,0,0,6.769-10.735,35.591,35.591,0,0,0,2.423-13.2,35.591,35.591,0,0,0-2.423-13.205,33.332,33.332,0,0,0-6.769-10.735,31.265,31.265,0,0,0-10.094-7.173,30.186,30.186,0,0,0-12.445-2.565,30.35,30.35,0,0,0-12.469,2.565A30.928,30.928,0,0,0,89.87-63.08,33.88,33.88,0,0,0,83.1-52.345,35.286,35.286,0,0,0,80.655-39.14a35.286,35.286,0,0,0,2.446,13.2A33.88,33.88,0,0,0,89.87-15.2,30.928,30.928,0,0,0,99.964-8.028,30.35,30.35,0,0,0,112.433-5.463ZM206.91,1.52a42.764,42.764,0,0,1-16.34-3.088,40.393,40.393,0,0,1-13.181-8.621,39.585,39.585,0,0,1-8.764-12.944A40.656,40.656,0,0,1,165.49-39.14a40.656,40.656,0,0,1,3.135-16.007,39.586,39.586,0,0,1,8.764-12.944,40.456,40.456,0,0,1,13.158-8.621A42.712,42.712,0,0,1,206.91-79.8a43.291,43.291,0,0,1,13.822,2.161,39.28,39.28,0,0,1,11.4,5.914l-3.42,6.033a30.275,30.275,0,0,0-9.69-5.178,37.3,37.3,0,0,0-11.685-1.8,35.38,35.38,0,0,0-13.656,2.565,32.737,32.737,0,0,0-10.759,7.125A32,32,0,0,0,175.869-52.3a34.568,34.568,0,0,0-2.494,13.157,34.568,34.568,0,0,0,2.494,13.157A32,32,0,0,0,182.923-15.3,32.737,32.737,0,0,0,193.681-8.17a35.38,35.38,0,0,0,13.656,2.565A37.3,37.3,0,0,0,219.022-7.41a30.276,30.276,0,0,0,9.69-5.177l3.42,6.032A39.788,39.788,0,0,1,220.8-.665,42.95,42.95,0,0,1,206.91,1.52ZM249.09,0V-78.375h7.22V0Zm25.128,0,30.875-78.375h6.7L342.617,0h-7.79L325.28-24.985H291.6L281.96,0Zm19.807-31.35H322.81L308.417-68.875ZM360.573,0V-78.375h7.22v72.01h32.823V0ZM467.495,0V-78.375h39.663v6.365H471.865l2.85-2.137V-38.19l-2.85-4.275h33.108V-36.1H471.865l2.85-4.275V0Zm59.09,0V-78.375h7.22V0ZM559.36,0V-78.375h7.22L608.665-12.3V-78.375h7.22V0h-7.22L566.58-65.978V0Zm74.432,0,30.875-78.375h6.7L702.193,0H694.4l-9.547-24.985H651.177L641.535,0ZM653.6-31.35h28.785L667.992-68.875ZM720.148,0V-78.375h7.22L769.453-12.3V-78.375h7.22V0h-7.22L727.367-65.978V0Zm116.28,1.52a42.764,42.764,0,0,1-16.34-3.088,40.393,40.393,0,0,1-13.181-8.621,39.586,39.586,0,0,1-8.764-12.944,40.656,40.656,0,0,1-3.135-16.007,40.656,40.656,0,0,1,3.135-16.007,39.586,39.586,0,0,1,8.764-12.944,40.457,40.457,0,0,1,13.158-8.621A42.712,42.712,0,0,1,836.427-79.8a43.29,43.29,0,0,1,13.823,2.161,39.28,39.28,0,0,1,11.4,5.914l-3.42,6.033a30.276,30.276,0,0,0-9.69-5.178,37.3,37.3,0,0,0-11.685-1.8A35.381,35.381,0,0,0,823.2-70.11a32.737,32.737,0,0,0-10.759,7.125A32,32,0,0,0,805.386-52.3a34.567,34.567,0,0,0-2.494,13.157,34.567,34.567,0,0,0,2.494,13.157A32,32,0,0,0,812.44-15.3,32.737,32.737,0,0,0,823.2-8.17a35.381,35.381,0,0,0,13.656,2.565A37.3,37.3,0,0,0,848.54-7.41a30.276,30.276,0,0,0,9.69-5.177l3.42,6.032a39.787,39.787,0,0,1-11.329,5.89A42.95,42.95,0,0,1,836.427,1.52ZM878.608,0V-78.375H918.08v6.365H885.828v29.545H916.94V-36.1H885.828V-6.365H918.08V0Z" transform="translate(673.882 725.917)" fill="#fff"/>
    <path id="Path_175" data-name="Path 175" d="M23.424,0V-150.975H66.246q14.823,0,25.8,5.124a39.158,39.158,0,0,1,17.065,14.823q6.085,9.7,6.085,23.607,0,13.725-6.085,23.927A41.062,41.062,0,0,1,92.049-67.71q-10.98,5.581-25.8,5.581H42V0ZM42-77.409H61.214a44.116,44.116,0,0,0,18.071-3.477A28.194,28.194,0,0,0,91.546-90.951q4.438-6.588,4.438-16.012,0-9.516-4.438-15.967a27.352,27.352,0,0,0-12.261-9.745,46.254,46.254,0,0,0-18.071-3.294H42ZM149.969,0V-150.975H192.79q15.006,0,25.986,5.215A39.056,39.056,0,0,1,235.75-130.8q5.993,9.745,5.993,23.378a46.258,46.258,0,0,1-4.666,21.137,39.43,39.43,0,0,1-13.313,15.1A49.628,49.628,0,0,1,203.13-63.5L253.089,0H229.482L182.726-61.579H168.543V0Zm18.574-77.409h19.215q10.8,0,18.574-3.568a27.225,27.225,0,0,0,11.987-10.2,28.839,28.839,0,0,0,4.209-15.784q0-13.633-9.2-21.319t-25.574-7.686H168.543Zm178.7,80.337A73.2,73.2,0,0,1,317.6-3.111,75.694,75.694,0,0,1,293.349-19.9a78.93,78.93,0,0,1-16.333-24.979,78.847,78.847,0,0,1-5.9-30.515,78.746,78.746,0,0,1,5.9-30.561,79.067,79.067,0,0,1,16.333-24.934,75.694,75.694,0,0,1,24.247-16.79,73.2,73.2,0,0,1,29.646-6.039,73.2,73.2,0,0,1,29.646,6.039,75.694,75.694,0,0,1,24.247,16.79,79.067,79.067,0,0,1,16.333,24.934,78.746,78.746,0,0,1,5.9,30.561,78.847,78.847,0,0,1-5.9,30.515A78.93,78.93,0,0,1,401.136-19.9a75.694,75.694,0,0,1-24.247,16.79A73.2,73.2,0,0,1,347.242,2.928Zm0-17.934a53.378,53.378,0,0,0,22.1-4.575,54.873,54.873,0,0,0,17.843-12.764A58.947,58.947,0,0,0,399.077-51.56,65.644,65.644,0,0,0,403.332-75.4a65.644,65.644,0,0,0-4.255-23.836,58.947,58.947,0,0,0-11.895-19.215,54.873,54.873,0,0,0-17.843-12.764,53.378,53.378,0,0,0-22.1-4.575,53.378,53.378,0,0,0-22.1,4.575A54.873,54.873,0,0,0,307.3-118.447a58.947,58.947,0,0,0-11.895,19.215A65.643,65.643,0,0,0,291.153-75.4a65.643,65.643,0,0,0,4.255,23.836A58.947,58.947,0,0,0,307.3-32.345a54.873,54.873,0,0,0,17.842,12.764A53.378,53.378,0,0,0,347.242-15.006ZM498.583,2.928A60.142,60.142,0,0,1,478.362-.229,61.761,61.761,0,0,1,463.081-7.96a69.231,69.231,0,0,1-10.522-9.013q-4.117-4.438-6.039-7L456.677-38.43q2.1,2.562,5.673,6.588a63.768,63.768,0,0,0,8.784,8.052,49.553,49.553,0,0,0,12.17,6.771,42.579,42.579,0,0,0,15.738,2.745,37.657,37.657,0,0,0,15.1-2.928,25.235,25.235,0,0,0,10.843-8.692q4.072-5.765,4.072-14.274a24.259,24.259,0,0,0-2.928-12.307,27.335,27.335,0,0,0-8.143-8.738,71.032,71.032,0,0,0-12.169-6.725Q498.858-71,490.806-74.115q-5.673-2.288-11.529-5.353a52.614,52.614,0,0,1-10.8-7.5,34.6,34.6,0,0,1-7.961-10.568A32.374,32.374,0,0,1,457.5-112a40.131,40.131,0,0,1,3.2-15.921,41.6,41.6,0,0,1,9.059-13.313,42.65,42.65,0,0,1,13.954-9.15,46.733,46.733,0,0,1,17.98-3.34,49.8,49.8,0,0,1,16.607,2.745,58.013,58.013,0,0,1,13.954,7,44.663,44.663,0,0,1,9.791,8.921l-8.693,13.633a39.866,39.866,0,0,0-7.686-7.457,40.743,40.743,0,0,0-10.706-5.719,37.732,37.732,0,0,0-12.993-2.2,27.651,27.651,0,0,0-14.411,3.523,24.333,24.333,0,0,0-9.013,9.1,24.056,24.056,0,0,0-3.111,11.895,18.529,18.529,0,0,0,2.333,9.608,21.414,21.414,0,0,0,6.268,6.679,49.049,49.049,0,0,0,8.875,4.85q4.941,2.1,10.157,4.026,9.333,3.66,17.659,7.549a69.183,69.183,0,0,1,14.64,9.059,37.591,37.591,0,0,1,9.928,12.4q3.614,7.229,3.614,17.477,0,13.816-6.542,23.561A41.659,41.659,0,0,1,524.478-2.2,62.288,62.288,0,0,1,498.583,2.928ZM585.417,0V-150.975h42.822q14.823,0,25.8,5.124a39.159,39.159,0,0,1,17.065,14.823q6.085,9.7,6.085,23.607,0,13.725-6.085,23.927A41.062,41.062,0,0,1,654.042-67.71q-10.98,5.581-25.8,5.581H603.991V0Zm18.574-77.409h19.215a44.116,44.116,0,0,0,18.071-3.477,28.194,28.194,0,0,0,12.261-10.065q4.438-6.588,4.438-16.012,0-9.516-4.438-15.967a27.352,27.352,0,0,0-12.261-9.745,46.254,46.254,0,0,0-18.071-3.294H603.991ZM711.961,0V-150.975h78.415V-134.6H730.536v50.782h57.645v16.287H730.536v51.149h59.841V0Zm117.76,0V-150.975h42.822q15.006,0,25.986,5.215A39.056,39.056,0,0,1,915.5-130.8q5.993,9.745,5.993,23.378a46.257,46.257,0,0,1-4.667,21.137,39.43,39.43,0,0,1-13.313,15.1A49.627,49.627,0,0,1,882.883-63.5L932.842,0H909.235L862.479-61.579H848.3V0ZM848.3-77.409h19.215q10.8,0,18.574-3.568a27.225,27.225,0,0,0,11.987-10.2,28.839,28.839,0,0,0,4.209-15.784q0-13.633-9.2-21.319t-25.574-7.686H848.3Z" transform="translate(659.591 592.558)" fill="#fff"/>
  </g>
</svg>
